<?xml version="1.0" encoding="UTF-8"?>
<svg version="1.1" xmlns="http://www.w3.org/2000/svg" width="512" height="512">
<path d="M0 0 C21.97506755 19.03197814 36.83376675 43.28999551 39.25 72.6875 C40.87858626 99.82184851 33.71434639 127.2209351 15.6640625 148.0625 C-4.29469304 169.76522447 -29.05337527 183.55228356 -58.921875 184.90625 C-88.12541876 185.75379562 -114.23145864 175.84734403 -135.625 156.0234375 C-155.25207474 137.08971051 -166.24331016 111.51181811 -167.03344727 84.28637695 C-167.41598595 54.18154689 -156.06565111 28.45062566 -135.3125 6.9375 C-99.39158637 -28.04203797 -39.35950101 -31.26428449 0 0 Z M-109.75 31.6875 C-110.35972656 32.21730469 -110.96945313 32.74710938 -111.59765625 33.29296875 C-124.3221673 45.06663721 -130.47817332 61.87162933 -132.03515625 78.78515625 C-132.59876388 96.99213302 -125.92747027 114.22229724 -113.75 127.6875 C-113.22019531 128.29722656 -112.69039062 128.90695312 -112.14453125 129.53515625 C-100.36551568 142.26544623 -83.54152909 148.43216132 -66.6171875 149.97265625 C-48.9857067 150.51335499 -31.41156077 143.83268042 -18.0859375 132.40234375 C-4.1095417 119.08043174 4.03253543 101.05851542 4.625 81.6875 C4.03234094 62.31012552 -4.11377871 44.30694876 -18.08203125 30.97265625 C-31.63590197 19.36355761 -48.73294028 12.79051664 -66.671875 13.4140625 C-82.98931469 14.86358125 -97.51536552 20.62291373 -109.75 31.6875 Z " fill="#000000" transform="translate(319.75,174.3125)"/>
<path d="M0 0 C5.05109274 3.41639389 9.24100641 7.90684194 13.49780273 12.24389648 C15.18060622 13.95571383 16.88135843 15.64802138 18.58520508 17.33886719 C19.67616556 18.43606522 20.76604686 19.53433759 21.85473633 20.63378906 C22.35583923 21.13195633 22.85694214 21.6301236 23.37322998 22.14338684 C28.29883013 27.20068557 32.0101346 32.37670638 31.93286133 39.70800781 C31.74851217 44.79985866 30.98386485 47.80658509 27.43286133 51.64550781 C23.12440716 55.44105077 20.58659141 56.8420939 14.87036133 57.08300781 C13.87907227 57.14359375 12.8877832 57.20417969 11.86645508 57.26660156 C2.48207444 55.56908561 -4.38289372 47.33108015 -10.85302734 40.80566406 C-12.38248971 39.26764082 -13.92981476 37.74931743 -15.47924805 36.23144531 C-27.32705216 24.46996444 -27.32705216 24.46996444 -28.06713867 15.64550781 C-27.73669509 9.85704781 -25.22963082 5.26537196 -21.12963867 1.27050781 C-14.09185616 -3.19247622 -7.49188796 -3.92212646 0 0 Z " fill="#000000" transform="translate(386.567138671875,361.3544921875)"/>
<path d="M0 0 C5.3306341 2.41852843 8.31077662 5.40462425 11.109375 10.58203125 C12.79060575 16.60644144 12.40206058 21.30259766 9.50488281 26.83666992 C6.08848892 31.88776267 1.59804087 36.07767633 -2.73901367 40.33447266 C-4.45083101 42.01727614 -6.14313857 43.71802835 -7.83398438 45.421875 C-8.93118241 46.51283548 -10.02945477 47.60271678 -11.12890625 48.69140625 C-11.62707352 49.19250916 -12.12524078 49.69361206 -12.63850403 50.2098999 C-17.69580276 55.13550005 -22.87182357 58.84680452 -30.203125 58.76953125 C-35.29497585 58.58518209 -38.30170228 57.82053477 -42.140625 54.26953125 C-45.93616796 49.96107708 -47.33721109 47.42326133 -47.578125 41.70703125 C-47.63871094 40.71574219 -47.69929688 39.72445312 -47.76171875 38.703125 C-46.0642028 29.31874437 -37.82619733 22.45377621 -31.30078125 15.98364258 C-29.76275801 14.45418022 -28.24443461 12.90685516 -26.7265625 11.35742188 C-19.30344245 3.87981993 -11.23956997 -3.8354007 0 0 Z " fill="#000000" transform="translate(141.140625,359.73046875)"/>
<path d="M0 0 C5.01791684 2.41935276 8.49958655 5.9991731 11 11 C11.30859375 13.50390625 11.30859375 13.50390625 11.4375 16.5625 C11.49808594 17.55378906 11.55867188 18.54507813 11.62109375 19.56640625 C9.9235778 28.95078688 1.68557233 35.81575504 -4.83984375 42.28588867 C-6.37786699 43.81535103 -7.89619039 45.36267609 -9.4140625 46.91210938 C-21.17554338 58.75991349 -21.17554338 58.75991349 -30 59.5 C-35.78846 59.16955642 -40.38013585 56.66249215 -44.375 52.5625 C-47.59980438 47.47723155 -48.84525023 43.05370357 -48 37 C-45.12488584 29.05536991 -39.30717232 23.73133579 -33.40161133 17.93505859 C-31.68979399 16.25225511 -29.99748643 14.5515029 -28.30664062 12.84765625 C-27.20944259 11.75669577 -26.11117023 10.66681447 -25.01171875 9.578125 C-24.51355148 9.07702209 -24.01538422 8.57591919 -23.50212097 8.05963135 C-16.47584899 1.21633255 -9.89251607 -1.36211278 0 0 Z " fill="#000000" transform="translate(407,94)"/>
<path d="M0 0 C0.99128906 -0.06058594 1.98257813 -0.12117188 3.00390625 -0.18359375 C12.38828688 1.5139222 19.25325504 9.75192767 25.72338867 16.27734375 C27.25285103 17.81536699 28.80017609 19.33369039 30.34960938 20.8515625 C42.19741349 32.61304338 42.19741349 32.61304338 42.9375 41.4375 C42.60705642 47.22596 40.09999215 51.81763585 36 55.8125 C30.91473155 59.03730438 26.49120357 60.28275023 20.4375 59.4375 C12.49286991 56.56238584 7.16883579 50.74467232 1.37255859 44.83911133 C-0.31024489 43.12729399 -2.0109971 41.43498643 -3.71484375 39.74414062 C-4.80580423 38.64694259 -5.89568553 37.54867023 -6.984375 36.44921875 C-7.48547791 35.95105148 -7.98658081 35.45288422 -8.50286865 34.93962097 C-13.4284688 29.88232224 -17.13977327 24.70630143 -17.0625 17.375 C-16.87815084 12.28314915 -16.11350352 9.27642272 -12.5625 5.4375 C-8.25404583 1.64195704 -5.71623008 0.24091391 0 0 Z " fill="#000000" transform="translate(110.5625,93.5625)"/>
<path d="M0 0 C4.07313467 2.26107082 6.78246218 5.24673523 8.8125 9.4375 C9.9509036 13.83227925 9.9902424 18.19211889 10.015625 22.703125 C10.02132507 23.49595886 10.02702515 24.28879272 10.03289795 25.10565186 C10.0423179 26.77989378 10.04886995 28.454154 10.05273438 30.12841797 C10.06241557 32.66537571 10.09345675 35.20151412 10.125 37.73828125 C10.24906588 56.2125905 10.24906588 56.2125905 5.05859375 62.59375 C4.46175781 63.0371875 3.86492187 63.480625 3.25 63.9375 C2.35087891 64.63359375 2.35087891 64.63359375 1.43359375 65.34375 C-3.28731705 68.52894283 -8.68001697 67.95652981 -14.1875 67.4375 C-18.64108274 65.29023689 -21.4947942 62.57272677 -24.1875 58.4375 C-26.04117871 53.11997662 -26.48303825 48.45701889 -26.453125 42.90625 C-26.45503845 42.11150269 -26.4569519 41.31675537 -26.45892334 40.4979248 C-26.46027683 38.82722657 -26.45663918 37.15651752 -26.44824219 35.48583984 C-26.43753054 32.94474413 -26.44816582 30.40435526 -26.4609375 27.86328125 C-26.45961576 26.23176929 -26.45705306 24.60025777 -26.453125 22.96875 C-26.45717346 22.21750854 -26.46122192 21.46626709 -26.46539307 20.69226074 C-26.4112215 14.52570247 -25.51306697 9.40691379 -22 4.1875 C-15.71638612 -1.95647801 -8.00253593 -3.4898277 0 0 Z " fill="#000000" transform="translate(264.1875,410.5625)"/>
<path d="M0 0 C4.45358274 2.14726311 7.3072942 4.86477323 10 9 C11.85367871 14.31752338 12.29553825 18.98048111 12.265625 24.53125 C12.26849518 25.72337097 12.26849518 25.72337097 12.27142334 26.9395752 C12.27277683 28.61027343 12.26913918 30.28098248 12.26074219 31.95166016 C12.25003054 34.49275587 12.26066582 37.03314474 12.2734375 39.57421875 C12.27211576 41.20573071 12.26955306 42.83724223 12.265625 44.46875 C12.26967346 45.21999146 12.27372192 45.97123291 12.27789307 46.74523926 C12.2237215 52.91179753 11.32556697 58.03058621 7.8125 63.25 C3.5691858 67.39901833 -0.07290813 68.78587868 -5.9375 69.4375 C-11.29526436 69.18830166 -15.85434037 67.24125833 -19.578125 63.3515625 C-24.00879827 57.52038905 -24.16268598 51.92121258 -24.203125 44.734375 C-24.20882507 43.94154114 -24.21452515 43.14870728 -24.22039795 42.33184814 C-24.2298179 40.65760622 -24.23636995 38.983346 -24.24023438 37.30908203 C-24.24991557 34.77212429 -24.28095675 32.23598588 -24.3125 29.69921875 C-24.43656588 11.2249095 -24.43656588 11.2249095 -19.24609375 4.84375 C-18.64925781 4.4003125 -18.05242187 3.956875 -17.4375 3.5 C-16.83808594 3.0359375 -16.23867187 2.571875 -15.62109375 2.09375 C-10.90018295 -1.09144283 -5.50748303 -0.51902981 0 0 Z " fill="#000000" transform="translate(262,34)"/>
<path d="M0 0 C1.1538343 -0.00855011 1.1538343 -0.00855011 2.33097839 -0.01727295 C3.95216516 -0.0266781 5.57337065 -0.03323899 7.19458008 -0.03710938 C9.65024828 -0.04680503 12.10507491 -0.07786619 14.56054688 -0.109375 C32.62917629 -0.23456579 32.62917629 -0.23456579 39.01171875 4.95703125 C39.45515625 5.55386719 39.89859375 6.15070313 40.35546875 6.765625 C41.0515625 7.66474609 41.0515625 7.66474609 41.76171875 8.58203125 C44.94691158 13.30294205 44.37449856 18.69564197 43.85546875 24.203125 C41.70820564 28.65670774 38.99069552 31.5104192 34.85546875 34.203125 C29.7119934 35.98709987 24.9776552 36.49885035 19.578125 36.46875 C18.8079454 36.47066345 18.03776581 36.4725769 17.24424744 36.47454834 C15.62482372 36.47590163 14.00538884 36.47226541 12.38598633 36.46386719 C9.92829621 36.45316995 7.47133936 36.46378391 5.01367188 36.4765625 C3.43098799 36.47524047 1.84830456 36.47267717 0.265625 36.46875 C-0.45858139 36.47279846 -1.18278778 36.47684692 -1.92893982 36.48101807 C-8.34204616 36.42305757 -13.99655059 35.62160279 -19.45703125 32.015625 C-23.53425958 27.74875814 -24.93357638 24.10171884 -25.58203125 18.265625 C-25.33285708 12.90838028 -23.37545216 8.3854302 -19.53125 4.625 C-13.58849149 0.03945685 -7.32251514 0.04273201 0 0 Z " fill="#000000" transform="translate(434.14453125,237.796875)"/>
<path d="M0 0 C1.15526939 -0.00287018 1.15526939 -0.00287018 2.33387756 -0.00579834 C3.95330128 -0.00715163 5.57273616 -0.00351541 7.19213867 0.00488281 C9.64982879 0.01558005 12.10678564 0.00496609 14.56445312 -0.0078125 C16.14713701 -0.00649047 17.72982044 -0.00392717 19.3125 0 C20.03670639 -0.00404846 20.76091278 -0.00809692 21.50706482 -0.01226807 C27.92017116 0.04569243 33.57467559 0.84714721 39.03515625 4.453125 C43.11238458 8.71999186 44.51170138 12.36703116 45.16015625 18.203125 C44.91098208 23.56036972 42.95357716 28.0833198 39.109375 31.84375 C33.16661649 36.42929315 26.90064014 36.42601799 19.578125 36.46875 C18.4242907 36.47730011 18.4242907 36.47730011 17.24714661 36.48602295 C15.62595984 36.4954281 14.00475435 36.50198899 12.38354492 36.50585938 C9.92787672 36.51555503 7.47305009 36.54661619 5.01757812 36.578125 C-13.05105129 36.70331579 -13.05105129 36.70331579 -19.43359375 31.51171875 C-20.09875 30.61646484 -20.09875 30.61646484 -20.77734375 29.703125 C-21.24140625 29.10371094 -21.70546875 28.50429688 -22.18359375 27.88671875 C-25.36878658 23.16580795 -24.79637356 17.77310803 -24.27734375 12.265625 C-22.13008064 7.81204226 -19.41257052 4.9583308 -15.27734375 2.265625 C-10.1338684 0.48165013 -5.3995302 -0.03010035 0 0 Z " fill="#000000" transform="translate(58.27734375,237.734375)"/>
</svg>
