<?xml version="1.0" encoding="UTF-8"?>
<svg version="1.1" xmlns="http://www.w3.org/2000/svg" width="500" height="500">
<path d="M0 0 C9.01003393 7.7518109 15.91703747 19.1719326 17.43359375 31.09375 C18.42660747 44.5349 15.92208359 57.70161232 7.54296875 68.5390625 C-2.85227246 80.56103993 -13.74706214 86.21488835 -29.56640625 88.09375 C-36.64614676 88.23695588 -43.05129207 86.79513881 -49.56640625 84.09375 C-50.36820313 83.76632812 -51.17 83.43890625 -51.99609375 83.1015625 C-65.05360735 77.2033087 -73.31626655 67.13561648 -78.56640625 54.09375 C-83.14365421 41.01589869 -80.9865232 27.06616668 -75.19140625 14.78125 C-68.31633464 1.90316601 -56.49478389 -6.01393958 -42.69140625 -10.21875 C-27.33839849 -13.47734757 -12.40225471 -9.21202481 0 0 Z " fill="#F5F5F5" transform="translate(281.56640625,211.90625)"/>
<path d="M0 0 C3.84009865 1.06536104 4.99438917 3.12915019 6.95361328 6.54199219 C7.43395894 10.25966741 7.3637345 11.94029508 5.23095703 15.06933594 C4.45880859 15.8646875 3.68666016 16.66003906 2.89111328 17.47949219 C2.07384766 18.3315625 1.25658203 19.18363281 0.41455078 20.06152344 C-0.39755859 20.88007813 -1.20966797 21.69863281 -2.04638672 22.54199219 C-2.73474609 23.26773438 -3.42310547 23.99347656 -4.13232422 24.74121094 C-7.52191974 28.26667632 -7.52191974 28.26667632 -9.04638672 29.54199219 C-9.70638672 29.54199219 -10.36638672 29.54199219 -11.04638672 29.54199219 C-11.04638672 30.20199219 -11.04638672 30.86199219 -11.04638672 31.54199219 C-18.16235756 32.86869862 -18.16235756 32.86869862 -21.92138672 31.47949219 C-24.68832263 28.95669768 -25.39685068 27.22269643 -26.04638672 23.54199219 C-24.91604423 17.05689167 -20.43718903 13.16219897 -15.98388672 8.66699219 C-15.2575 7.88324219 -14.53111328 7.09949219 -13.78271484 6.29199219 C-9.35336429 1.79606431 -6.42682006 -0.38304596 0 0 Z " fill="#E0E0E0" transform="translate(319.04638671875,174.4580078125)"/>
<path d="M0 0 C5.20132874 1.37359034 8.47059592 5.68765142 11.99609375 9.53417969 C12.805625 10.3759375 13.61515625 11.21769531 14.44921875 12.08496094 C21.31249492 19.28218847 21.31249492 19.28218847 21.87109375 23.47167969 C21.37564357 27.68300619 19.65256638 28.96462988 16.49609375 31.65917969 C16.16609375 31.98917969 15.83609375 32.31917969 15.49609375 32.65917969 C11.40477029 33.24365447 9.10670398 32.67846463 5.80859375 30.34667969 C3.53542682 28.60653121 1.39872907 26.80323702 -0.50390625 24.65917969 C-0.50390625 23.99917969 -0.50390625 23.33917969 -0.50390625 22.65917969 C-1.09816406 22.3975 -1.69242187 22.13582031 -2.3046875 21.86621094 C-6.59365357 19.51223133 -9.77158066 15.58153437 -11.50390625 11.03417969 C-11.50390625 7.40514735 -10.48695356 4.85023516 -8.18164062 2.05712891 C-5.53080699 -0.15164196 -3.36556001 -0.11591272 0 0 Z " fill="#D9D9D9" transform="translate(304.50390625,293.3408203125)"/>
<path d="M0 0 C3.93961611 2.34500959 6.61021719 5.76832786 9.515625 9.2578125 C11.54639984 11.64130086 13.75608705 13.81841796 16 16 C18.51012963 18.51012963 18.29721609 19.46805237 18.3125 22.9375 C18.32925781 23.81277344 18.34601563 24.68804687 18.36328125 25.58984375 C18 28 18 28 16.68359375 29.7578125 C13.83824961 31.85716154 11.49106 31.94181567 8 32 C1.04145123 29.24283917 -4.15860067 23.59147529 -9 18 C-9 17.34 -9 16.68 -9 16 C-9.99 15.67 -10.98 15.34 -12 15 C-13.63778009 12.13388485 -14.00501791 10.24587761 -13.9375 6.9375 C-11.78544664 0.19439949 -6.42478468 -1.27184513 0 0 Z " fill="#D9D9D9" transform="translate(188,175)"/>
<path d="M0 0 C3.01553617 0.73781894 4.23478234 1.8565206 5.87890625 4.4597168 C7.00165065 7.90279964 7.08065552 9.81123699 6.00390625 13.2722168 C2.91377025 17.9074208 -0.88515397 21.84269042 -5.12109375 25.4597168 C-5.78109375 25.4597168 -6.44109375 25.4597168 -7.12109375 25.4597168 C-7.34796875 26.0578418 -7.57484375 26.6559668 -7.80859375 27.2722168 C-9.55460517 30.18223583 -10.99487104 31.1397561 -14.12109375 32.4597168 C-18.79783134 32.54322997 -20.57879614 31.93422721 -24.12109375 28.8347168 C-26.06526272 25.55393165 -26.61395149 24.18800859 -25.94140625 20.49291992 C-24.0632339 15.8377356 -20.13124948 12.49045187 -16.62109375 9.0222168 C-15.8425 8.1952832 -15.06390625 7.36834961 -14.26171875 6.51635742 C-9.67361743 1.91686181 -6.64321833 -0.5384988 0 0 Z " fill="#E6E6E6" transform="translate(200.12109375,293.540283203125)"/>
<path d="M0 0 C2.05938216 1.57885966 2.84571211 2.69142423 4 5 C4.09700679 6.92384589 4.13076217 8.8510548 4.1328125 10.77734375 C4.13474609 12.50694336 4.13474609 12.50694336 4.13671875 14.27148438 C4.13285156 15.48126953 4.12898438 16.69105469 4.125 17.9375 C4.13080078 19.74637695 4.13080078 19.74637695 4.13671875 21.59179688 C4.13542969 22.74615234 4.13414062 23.90050781 4.1328125 25.08984375 C4.13168457 26.15066162 4.13055664 27.21147949 4.12939453 28.30444336 C3.97667672 31.48587227 3.6135631 33.36283832 1.375 35.6875 C-1.94588747 37.52272729 -4.25606197 37.39409874 -8 37 C-10.875 35.6875 -10.875 35.6875 -13 34 C-14.70904915 28.87285256 -14.26897871 23.49262602 -14.3125 18.125 C-14.34150391 16.94035156 -14.37050781 15.75570312 -14.40039062 14.53515625 C-14.40876953 13.39175781 -14.41714844 12.24835938 -14.42578125 11.0703125 C-14.44036377 10.02633301 -14.45494629 8.98235352 -14.4699707 7.90673828 C-13.87895639 4.25135315 -12.58224362 2.60879251 -10 0 C-6.22941703 -1.25686099 -3.86146303 -0.82745636 0 0 Z " fill="#DDDDDD" transform="translate(255,148)"/>
<path d="M0 0 C2.58187874 1.66059161 3.57636699 2.37620545 5 5 C5.75770601 9.50775428 5.69708797 13.93923455 5.625 18.5 C5.65400391 20.33498047 5.65400391 20.33498047 5.68359375 22.20703125 C5.62918598 32.16365396 5.62918598 32.16365396 2.68359375 35.31640625 C-0.81344021 37.51032421 -2.93883196 37.51687593 -7 37 C-9.59968197 36.1568599 -10.62315813 35.59514323 -12.08227539 33.29077148 C-13.99407491 28.51864727 -13.41264996 23.13466869 -13.4375 18.0625 C-13.47037109 16.88236328 -13.50324219 15.70222656 -13.53710938 14.48632812 C-13.59732127 4.81410836 -13.59732127 4.81410836 -10.59765625 1.74609375 C-6.48342511 -1.01941199 -4.86756357 -1.33619392 0 0 Z " fill="#DEDEDE" transform="translate(254,316)"/>
<path d="M0 0 C1.08925781 -0.020625 2.17851562 -0.04125 3.30078125 -0.0625 C4.35394531 -0.06765625 5.40710938 -0.0728125 6.4921875 -0.078125 C7.93247314 -0.09214355 7.93247314 -0.09214355 9.40185547 -0.10644531 C12.65672568 0.3196001 14.49001844 1.31749151 17.125 3.25 C19.45036063 6.73804095 19.45957898 8.15140754 19.125 12.25 C18.27477458 14.80067626 17.68447083 15.89066638 15.42016602 17.3449707 C12.54214869 18.47982979 10.24416828 18.49257679 7.15234375 18.48046875 C6.00572266 18.47853516 4.85910156 18.47660156 3.67773438 18.47460938 C1.88819336 18.45624023 1.88819336 18.45624023 0.0625 18.4375 C-1.13439453 18.43685547 -2.33128906 18.43621094 -3.56445312 18.43554688 C-14.70243553 18.37913616 -14.70243553 18.37913616 -17.5625 15.625 C-19.41377007 12.27508273 -19.33849055 10.02413737 -18.875 6.25 C-14.18739516 -1.18551113 -7.97533037 0.03748686 0 0 Z " fill="#E1E1E1" transform="translate(333.875,240.75)"/>
<path d="M0 0 C1.62711914 -0.02416992 1.62711914 -0.02416992 3.28710938 -0.04882812 C4.86008789 -0.04979492 4.86008789 -0.04979492 6.46484375 -0.05078125 C7.41866943 -0.05376221 8.37249512 -0.05674316 9.35522461 -0.05981445 C12.59115367 0.38520239 14.4379732 1.39205272 17.0625 3.3125 C19.53592266 7.02263399 19.44753486 8.92310262 19.0625 13.3125 C17.30234869 16.4975357 16.56359084 17.14546972 13.0625 18.3125 C8.77550163 18.59906406 4.48299701 18.59017165 0.1875 18.625 C-0.99714844 18.65400391 -2.18179688 18.68300781 -3.40234375 18.71289062 C-4.54574219 18.72126953 -5.68914062 18.72964844 -6.8671875 18.73828125 C-8.43315674 18.76015503 -8.43315674 18.76015503 -10.03076172 18.7824707 C-13.69680036 18.1897339 -15.33544925 16.92066159 -17.9375 14.3125 C-19.07759771 10.39341414 -19.34638632 8.28091496 -17.75 4.5 C-13.0908919 -1.12306149 -6.73161324 -0.01992781 0 0 Z " fill="#E6E6E6" transform="translate(165.9375,240.6875)"/>
<path d="M0 0 C0.33 0.66 0.66 1.32 1 2 C-1.97 1.67 -4.94 1.34 -8 1 C-8.66 2.32 -9.32 3.64 -10 5 C-11.4375 6.703125 -11.4375 6.703125 -13 8.25 C-13.515625 8.77078125 -14.03125 9.2915625 -14.5625 9.828125 C-16 11 -16 11 -18 11 C-18.2475 11.5775 -18.495 12.155 -18.75 12.75 C-20.18299988 15.32939979 -21.78424676 17.06121592 -24 19 C-24.66 19 -25.32 19 -26 19 C-26 21.64 -26 24.28 -26 27 C-28 25 -28 25 -28.15625 21.96484375 C-27.13042149 16.21394177 -22.48590442 12.50080205 -18.5 8.5625 C-17.72140625 7.73556641 -16.9428125 6.90863281 -16.140625 6.05664062 C-10.71753844 0.62008613 -7.68952236 -1.05346456 0 0 Z " fill="#777777" transform="translate(202,294)"/>
<path d="M0 0 C0.66 0.33 1.32 0.66 2 1 C0.37860535 2.81584234 -1.24686736 4.6277162 -2.875 6.4375 C-3.33519531 6.95376953 -3.79539063 7.47003906 -4.26953125 8.00195312 C-7.7734375 11.88671875 -7.7734375 11.88671875 -10 13 C-10.33 13.99 -10.66 14.98 -11 16 C-11.66 16 -12.32 16 -13 16 C-10.5464324 8.84376118 -5.69501756 4.65519694 0 0 Z " fill="#707070" transform="translate(221,210)"/>
<path d="M0 0 C0.33 0.66 0.66 1.32 1 2 C-1.97 1.67 -4.94 1.34 -8 1 C-8.66 2.32 -9.32 3.64 -10 5 C-12.125 6.75 -12.125 6.75 -14 8 C-13.63515574 5.44609016 -12.94055033 3.9108255 -11.5 1.75 C-7.80600629 -0.8357956 -4.37436583 -0.33648968 0 0 Z " fill="#838383" transform="translate(202,294)"/>
<path d="M0 0 C0.33 0.66 0.66 1.32 1 2 C-1.97 1.67 -4.94 1.34 -8 1 C-8.66 2.32 -9.32 3.64 -10 5 C-12.125 6.75 -12.125 6.75 -14 8 C-14.66 7.67 -15.32 7.34 -16 7 C-11.15975598 0.89911364 -7.82044639 -1.11720663 0 0 Z " fill="#656565" transform="translate(321,175)"/>
<path d="M0 0 C3 3 3 3 3.1875 6.6875 C3.125625 7.780625 3.06375 8.87375 3 10 C2.01 10.495 2.01 10.495 1 11 C0.67 7.37 0.34 3.74 0 0 Z " fill="#6D6D6D" transform="translate(182,244)"/>
<path d="M0 0 C0.33 0.66 0.66 1.32 1 2 C-1.3125 4.5 -1.3125 4.5 -4 7 C-4.99 7 -5.98 7 -7 7 C-4.69 4.69 -2.38 2.38 0 0 Z " fill="#7D7D7D" transform="translate(304,183)"/>
</svg>
