<?xml version="1.0" encoding="UTF-8"?>
<svg version="1.1" xmlns="http://www.w3.org/2000/svg" width="512" height="512">
<path d="M0 0 C2.66983013 0.00321309 5.33860232 -0.02060611 8.00830078 -0.0456543 C9.73095566 -0.04792329 11.45361346 -0.04863265 13.17626953 -0.04760742 C13.96176178 -0.05681717 14.74725403 -0.06602692 15.55654907 -0.07551575 C22.05833577 -0.02118706 26.72447637 1.33990644 31.76220703 5.69067383 C37.20833446 12.04448916 38.45449817 16.6729704 38.33642578 24.92895508 C37.7371595 31.1887607 35.41597829 35.15769547 30.75830078 39.33911133 C28.93247844 40.80303446 27.09276485 42.2497289 25.24267578 43.68286133 C-7.81847674 69.90484251 -27.98080949 111.48725583 -32.80688477 152.91235352 C-34.13091706 170.50179202 -34.10339293 189.12633378 -29.98779297 206.31567383 C-29.69775391 207.54423096 -29.69775391 207.54423096 -29.40185547 208.79760742 C-20.56632901 244.99190524 -0.81227642 278.53601179 29.01220703 301.31567383 C29.93388672 302.05301758 30.85556641 302.79036133 31.80517578 303.55004883 C39.72659613 309.75035086 48.11387133 314.68220809 57.01220703 319.31567383 C57.62966797 319.63810059 58.24712891 319.96052734 58.88330078 320.29272461 C98.67130727 340.73220859 144.88243353 342.0154635 187.01953125 328.68041992 C193.84590167 326.43264928 200.33506716 323.68924792 206.77001953 320.48754883 C207.7809668 319.98690918 208.79191406 319.48626953 209.83349609 318.97045898 C211.82203972 317.97427939 213.80125364 316.95918096 215.76904297 315.92260742 C222.57541478 312.48853746 228.77040714 310.67548677 236.27099609 313.02246094 C242.94078873 315.76551869 247.6291482 321.20379145 250.51220703 327.69067383 C251.66575522 336.05389822 249.69559199 343.28038532 246.44970703 350.94067383 C246.09183105 351.8067627 245.73395508 352.67285156 245.36523438 353.56518555 C241.95777754 361.68606712 238.1386722 369.5398132 234.01220703 377.31567383 C233.64401855 378.02401367 233.27583008 378.73235352 232.89648438 379.4621582 C221.39500961 401.52084785 205.96716549 420.26770704 189.01220703 438.31567383 C188.09181641 439.29987305 188.09181641 439.29987305 187.15283203 440.30395508 C182.17782286 445.45664314 176.60441683 449.85615366 171.01220703 454.31567383 C169.9375244 455.19270988 168.86331768 456.07032937 167.78955078 456.94848633 C123.13329679 493.15573287 65.7824933 512.89268159 8.38720703 512.62817383 C7.55937714 512.62635101 6.73154724 512.6245282 5.87863159 512.62265015 C-7.60179051 512.57289852 -20.71817694 511.8471836 -33.98779297 509.31567383 C-34.93074219 509.13875 -35.87369141 508.96182617 -36.84521484 508.77954102 C-72.18198238 501.98220268 -106.3693143 489.0308177 -135.98779297 468.31567383 C-136.7117627 467.81197266 -137.43573242 467.30827148 -138.18164062 466.78930664 C-149.02613911 459.1822066 -158.91659955 451.03467476 -168.40551758 441.80078125 C-169.9557333 440.34576471 -171.55239265 438.98839709 -173.19873047 437.64379883 C-175.49376335 435.7280571 -177.38855471 433.9054641 -179.30029297 431.62817383 C-181.14304216 429.45693456 -182.98640496 427.31714512 -184.94091797 425.24536133 C-196.72569721 412.71857747 -206.6858193 398.35249933 -214.98779297 383.31567383 C-215.4436377 382.50211426 -215.89948242 381.68855469 -216.36914062 380.8503418 C-248.38405284 323.30788838 -258.63943579 251.64172476 -241.00390625 187.7512207 C-229.95281202 150.01381758 -211.09879829 114.02144417 -183.98779297 85.31567383 C-182.89953489 84.04905517 -181.81611112 82.77826537 -180.73779297 81.50317383 C-172.31536588 71.87197249 -163.09036127 63.16068497 -152.98779297 55.31567383 C-151.98232422 54.51645508 -150.97685547 53.71723633 -149.94091797 52.89379883 C-107.29244734 19.21668934 -54.4450382 -0.13715395 0 0 Z M-122.98779297 89.31567383 C-123.89400391 90.03110352 -124.80021484 90.7465332 -125.73388672 91.48364258 C-135.54534928 99.34672959 -144.96654518 107.60480622 -152.98779297 117.31567383 C-153.74447266 118.18450195 -154.50115234 119.05333008 -155.28076172 119.94848633 C-161.89302658 127.6371664 -167.65504072 135.69161355 -172.98779297 144.31567383 C-173.40029297 144.98276367 -173.81279297 145.64985352 -174.23779297 146.3371582 C-202.52041912 192.87091654 -211.93002616 252.53021418 -199.24462891 305.41381836 C-190.90668032 337.8192811 -175.92437325 367.96761813 -153.98779297 393.31567383 C-153.30587891 394.10844727 -152.62396484 394.9012207 -151.92138672 395.71801758 C-114.19035668 438.59102961 -62.45782397 464.83605954 -5.25341797 468.72192383 C48.55750439 471.90066368 102.84563448 454.37823734 144.01220703 419.31567383 C144.75986328 418.67887695 145.50751953 418.04208008 146.27783203 417.38598633 C160.1193701 405.24026583 172.22811845 392.23612515 183.01220703 377.31567383 C179.76367647 376.23283031 178.65282186 376.39762962 175.38330078 377.05786133 C174.44437988 377.23687988 173.50545898 377.41589844 172.53808594 377.6003418 C171.00933838 377.89255615 171.00933838 377.89255615 169.44970703 378.19067383 C116.64431166 387.52524319 59.08579575 376.12186571 14.83251953 345.36645508 C3.04457015 336.79488524 -7.6847061 327.65205016 -17.98779297 317.31567383 C-18.68259766 316.65567383 -19.37740234 315.99567383 -20.09326172 315.31567383 C-26.47834514 309.1821603 -31.80949313 302.46039101 -36.98779297 295.31567383 C-37.76767578 294.25348633 -38.54755859 293.19129883 -39.35107422 292.09692383 C-57.90058234 266.03900867 -70.4034025 234.96718409 -74.98779297 203.31567383 C-75.10058594 202.58541992 -75.21337891 201.85516602 -75.32958984 201.1027832 C-82.75216316 151.42863871 -71.23451703 100.76019088 -45.12646484 58.19702148 C-43.35460189 55.26949664 -41.67217381 52.29424637 -39.98779297 49.31567383 C-67.32406803 49.31567383 -102.36130127 72.69904502 -122.98779297 89.31567383 Z " fill="#000000" transform="translate(254.98779296875,-0.315673828125)"/>
</svg>
